<?xml version="1.0" encoding="UTF-8"?>
<!DOCTYPE svg PUBLIC "-//W3C//DTD SVG 1.1//EN" "http://www.w3.org/Graphics/SVG/1.1/DTD/svg11.dtd">
<!-- Creator: CorelDRAW 2019 (64-Bit) -->
<svg xmlns="http://www.w3.org/2000/svg" xml:space="preserve" width="95.9668mm" height="15.4227mm" version="1.1" style="shape-rendering:geometricPrecision; text-rendering:geometricPrecision; image-rendering:optimizeQuality; fill-rule:evenodd; clip-rule:evenodd"
viewBox="0 0 10188.59 1637.39"
 xmlns:xlink="http://www.w3.org/1999/xlink"
 xmlns:xodm="http://www.corel.com/coreldraw/odm/2003">
 <defs>
  <style type="text/css">
   <![CDATA[
    .fil1 {fill:#FEFEFE;fill-rule:nonzero}
    .fil2 {fill:#2B2A29;fill-rule:nonzero}
    .fil0 {fill:#E31E24;fill-rule:nonzero}
    .fil3 {fill:#FFFFFF;fill-rule:nonzero}
   ]]>
  </style>
 </defs>
 <g id="Слой_x0020_1">
  <metadata id="CorelCorpID_0Corel-Layer"/>
  <path class="fil3" d="M818.7 1637.39c-452.14,0 -818.7,-366.56 -818.7,-818.7 0,-452.14 366.57,-818.69 818.7,-818.69 452.14,0 818.7,366.56 818.7,818.69 0,452.15 -366.57,818.7 -818.7,818.7z"/>
  <path class="fil1" d="M811.68 614.55c-2.36,0 -4.68,0.15 -7.04,0.22l14.05 0c-2.33,-0.07 -4.64,-0.22 -7.01,-0.22z"/>
  <path class="fil1" d="M1137.82 1035.12c0.22,-1.01 0.41,-2.02 0.64,-3.04 -1.65,0.31 -3.26,0.75 -4.9,1.05 1.45,0.56 2.8,1.39 4.27,1.99z"/>
  <path class="fil1" d="M484.94 1032.05c0.22,1.02 0.4,2.03 0.64,3.04 1.45,-0.59 2.8,-1.42 4.3,-2.02 -1.68,-0.27 -3.29,-0.71 -4.94,-1.02z"/>
  <path class="fil1" d="M982.86 783.34c0,-15.93 -12.89,-28.85 -28.85,-28.85 -15.91,0 -28.8,12.92 -28.8,28.85 0,15.91 12.89,28.84 28.8,28.84 15.96,0 28.85,-12.92 28.85,-28.84z"/>
  <path class="fil1" d="M640.77 783.34c0,15.91 12.89,28.84 28.84,28.84 15.93,0 28.8,-12.92 28.8,-28.84 0,-15.93 -12.88,-28.85 -28.8,-28.85 -15.95,0 -28.84,12.92 -28.84,28.85z"/>
  <path class="fil1" d="M1029.02 1033.92c-9.93,-31.99 -39.74,-55.25 -74.99,-55.25 -35.24,0 -65.09,23.26 -74.98,55.25 -2.28,-7.35 -3.52,-15.17 -3.52,-23.26 0,-43.37 35.13,-78.5 78.5,-78.5 43.34,0 78.51,35.13 78.51,78.5 0,8.09 -1.24,15.91 -3.52,23.26zm-120.04 173.79c-2.36,2.09 -5.23,4.61 -8.76,7.15 -2.92,2.14 -6.3,4.43 -10,6.67 -1.01,42.51 -35.69,76.67 -78.39,76.67 -42.66,0 -77.3,-34.05 -78.43,-76.44 -3.78,-2.33 -7.26,-4.68 -10.22,-6.86 -3.51,-2.55 -6.4,-5.05 -8.73,-7.16 -4.64,-4.15 -6.96,-6.92 -6.96,-6.92 0,0 3.56,0.74 9.48,2.17 4.49,1.08 10.33,2.47 17.15,3.94 3.45,-20.42 21.05,-36 42.4,-36 14.61,0 27.49,7.3 35.31,18.4 7.79,-11.09 20.68,-18.4 35.29,-18.4 21.34,0 38.91,15.59 42.39,35.96 6.74,-1.42 12.51,-2.85 16.89,-3.9 5.96,-1.42 9.51,-2.21 9.51,-2.21 0,0 -2.33,2.77 -6.93,6.93zm-239.4 -229.04c-35.25,0 -65.06,23.26 -74.99,55.25 -2.28,-7.35 -3.51,-15.17 -3.51,-23.26 0,-43.37 35.16,-78.5 78.5,-78.5 43.37,0 78.5,35.13 78.5,78.5 0,8.09 -1.23,15.91 -3.52,23.26 -9.88,-31.99 -39.73,-55.25 -74.98,-55.25zm114.12 141.72c5.17,0 9.36,4.2 9.36,9.33 0,1.76 -0.59,3.29 -1.47,4.68 -1.6,-2.74 -4.45,-4.68 -7.9,-4.68 -3.41,0 -6.25,1.94 -7.9,4.68 -0.83,-1.39 -1.42,-2.92 -1.42,-4.68 0,-5.13 4.19,-9.33 9.32,-9.33zm56.22 0c5.17,0 9.33,4.2 9.33,9.33 0,1.76 -0.61,3.29 -1.42,4.68 -1.66,-2.74 -4.5,-4.68 -7.91,-4.68 -3.44,0 -6.29,1.94 -7.9,4.68 -0.86,-1.39 -1.47,-2.92 -1.47,-4.68 0,-5.13 4.19,-9.33 9.36,-9.33zm295.03 -269.92l-7.2 -26.37c-3.07,-8.58 -6.21,-17.11 -9.47,-25.62l-11.69 -24.64c-4.49,-7.94 -9.17,-15.73 -13.82,-23.53l-15.72 -22.17 -17.69 -20.6c-6.43,-6.33 -12.73,-12.81 -19.32,-18.95 -6.96,-5.73 -13.78,-11.57 -20.86,-17.08 -7.41,-5.13 -14.71,-10.3 -22.24,-15.1 -7.79,-4.45 -15.47,-9.02 -23.45,-12.99 -8.16,-3.59 -16.14,-7.48 -24.38,-10.74 -8.4,-2.85 -16.59,-6.22 -25.1,-8.58 -8.61,-2.03 -17.08,-4.34 -25.65,-6.03 -8.7,-1.27 -17.27,-2.89 -25.96,-3.67 -8.8,-0.41 -17.53,-1.01 -26.07,-1.16 -8.57,0.52 -17.11,0.86 -25.65,1.53 116.4,3.26 216.64,70.91 266.36,168.62 1.91,3.75 3.75,7.57 5.51,11.39 3.52,7.72 6.74,15.57 9.63,23.59 4.34,12.03 7.94,24.39 10.79,37.04 -28.7,15.29 -61.43,23.97 -96.19,23.97 -63.67,0 -120.56,-29.03 -158.16,-74.57 -4.16,-5.05 -8.09,-10.33 -11.81,-15.77 -1.84,-2.73 -3.63,-5.5 -5.32,-8.31 -18.83,-31.01 -29.66,-67.37 -29.66,-106.3 -0.45,4.38 -0.82,8.84 -1.11,13.3 -0.34,3.89 -0.61,7.82 -0.49,11.75 -12.36,101.35 -98.65,179.89 -203.34,179.89 -34.79,0 -67.52,-8.68 -96.21,-23.97 30.26,-135.09 149.03,-236.63 292.28,-240.64 -8.54,-0.67 -17.07,-1.01 -25.62,-1.53 -8.58,0.15 -17.31,0.74 -26.11,1.16 -8.68,0.79 -17.22,2.4 -25.95,3.67 -8.58,1.69 -17.04,4 -25.66,6.03 -8.5,2.36 -16.67,5.73 -25.09,8.58 -8.25,3.26 -16.22,7.16 -24.39,10.74 -7.97,3.97 -15.66,8.55 -23.44,12.99 -7.54,4.8 -14.83,9.97 -22.25,15.1 -7.04,5.51 -13.85,11.35 -20.86,17.08 -6.59,6.14 -12.88,12.62 -19.32,18.95l-17.68 20.6 -15.73 22.17c-4.64,7.79 -9.32,15.59 -13.82,23.53l-11.68 24.64c-3.26,8.5 -6.41,17.04 -9.44,25.62l-7.23 26.37 -4.46 16.33 15.84 8.5c2.06,1.11 4.19,2.06 6.3,3.1 -2.13,14.61 -3.26,29.51 -3.26,44.73l0.03 0.15 0 0 -1.42 33.29c-0.56,11.01 0.64,22.09 0.87,33.1 0,11.02 2.06,21.91 3.25,32.82 0.27,1.87 0.49,3.75 0.68,5.62 8.36,-1.87 16.97,-2.99 25.88,-2.99 66.44,0 120.3,53.86 120.3,120.3 0,38.42 -18.13,72.54 -46.26,94.57 3.82,4.27 7.72,8.42 11.91,12.28l11.5 11.31c3.9,3.71 8.24,6.89 12.28,10.37l12.4 10.22 13.26 9.07c4.45,2.92 8.64,6.33 13.32,8.84l13.97 7.75c9.02,5.73 19.1,9.25 28.65,13.82 9.7,4.23 19.96,6.82 29.93,10.37l4.49 1.61 2.36 2.92c6.15,7.71 14.05,14 22.89,18.2 4.38,2.13 9.02,3.75 13.82,4.8 2.36,0.52 4.79,0.89 7.22,1.2 2.25,0.25 5.24,0.33 6.93,0.37l4.46 -0.12 3.29 -0.3c2.37,-0.3 4.83,-0.67 7.2,-1.2 4.76,-1.08 9.4,-2.7 13.81,-4.83 8.8,-4.23 16.67,-10.56 22.82,-18.27l2.33 -2.96 4.57 -1.61c9.93,-3.56 20.18,-6.14 29.93,-10.4 9.54,-4.58 19.62,-8.06 28.64,-13.82l13.97 -7.79c4.72,-2.47 8.88,-5.88 13.38,-8.8l13.25 -9.02 12.44 -10.22c4.08,-3.45 8.39,-6.67 12.32,-10.34l11.5 -11.31c4.16,-3.79 8.02,-7.87 11.76,-12.06 -28.17,-21.99 -46.36,-56.14 -46.36,-94.65 0,-66.44 53.86,-120.3 120.3,-120.3 9.02,0 17.75,1.16 26.21,3.07 0.23,-1.94 0.46,-3.9 0.71,-5.81 1.17,-10.89 3.19,-21.83 3.15,-32.85 0.18,-11.01 1.35,-22.09 0.74,-33.15l-1.53 -33.25 1.16 7.56c-0.3,-2.47 -0.56,-4.94 -0.9,-7.41l0 0 0 -0.15c0,-15.21 -1.13,-30.12 -3.26,-44.73 2.1,-1.04 4.24,-1.99 6.3,-3.1l15.84 -8.5 -4.45 -16.33z"/>
  <path class="fil2" d="M744.58 1033.92c2.28,-7.35 3.52,-15.17 3.52,-23.26 0,-43.37 -35.17,-78.5 -78.51,-78.5 -43.37,0 -78.5,35.13 -78.5,78.5 0,8.09 1.23,15.91 3.52,23.26 9.88,-31.99 39.74,-55.25 74.98,-55.25 35.25,0 65.06,23.26 74.99,55.25z"/>
  <path class="fil0" d="M853.9 1237.06c-13.11,3.64 -27.64,5.63 -42.21,5.7 -6.96,-0.12 -14.57,-0.46 -21.65,-1.47 -7.07,-0.98 -14,-2.36 -20.52,-4.19 -13.14,-3.56 -24.79,-8.77 -34.12,-14.12 -0.71,-0.41 -1.31,-0.83 -1.99,-1.23 1.13,42.39 35.74,76.44 78.39,76.44 42.73,0 77.42,-34.16 78.43,-76.63 -0.79,0.45 -1.47,0.9 -2.25,1.35 -9.32,5.39 -20.94,10.6 -34.08,14.15z"/>
  <path class="fil2" d="M925.21 783.34c0,-15.93 12.89,-28.85 28.85,-28.85 15.91,0 28.8,12.92 28.8,28.85 0,15.91 -12.89,28.84 -28.8,28.84 -15.96,0 -28.85,-12.92 -28.85,-28.84zm-226.82 0c0,15.91 -12.88,28.84 -28.8,28.84 -15.91,0 -28.84,-12.92 -28.84,-28.84 0,-15.93 12.92,-28.85 28.84,-28.85 15.93,0 28.8,12.92 28.8,28.85zm425.17 91.98c-2.06,1.08 -4.19,2.02 -6.29,3.07 2.13,14.61 3.22,29.55 3.22,44.72l0 0.19 0 0c0.37,2.47 0.64,4.95 0.93,7.41l-1.16 -7.6 1.5 33.29c0.64,11.05 -0.52,22.14 -0.71,33.11 0.04,11.05 -1.99,21.94 -3.19,32.85 -0.25,1.94 -0.45,3.9 -0.67,5.81 -0.41,3.51 -0.83,7.04 -1.47,10.48l-3.48 16.11 -3.48 16 -4.71 15.72 -4.77 15.62c-1.5,5.24 -3.93,10.19 -5.87,15.25 -4.09,10.08 -7.84,20.3 -13.15,29.81 -5.01,9.63 -9.36,19.59 -15.43,28.62 -5.73,9.17 -10.94,18.69 -17.72,27.15 -6.43,8.7 -12.51,17.65 -19.92,25.51 -3.42,3.85 -6.74,7.78 -10.19,11.65 -3.71,4.19 -7.57,8.27 -11.72,12.06l-11.5 11.28c-3.94,3.66 -8.24,6.89 -12.33,10.37l-12.43 10.18 -13.26 9.07c-4.49,2.89 -8.65,6.3 -13.37,8.8l-13.97 7.79c-9.02,5.73 -19.1,9.22 -28.7,13.78 -9.69,4.27 -19.96,6.89 -29.92,10.45l-4.53 1.61 -2.36 2.96c-6.1,7.71 -13.97,14 -22.82,18.24 -4.37,2.13 -9.02,3.75 -13.78,4.83 -2.4,0.52 -4.83,0.93 -7.19,1.2l-3.33 0.3 -4.43 0.12c-1.68,0 -4.68,-0.12 -6.96,-0.38 -2.43,-0.25 -4.83,-0.64 -7.23,-1.16 -4.76,-1.08 -9.4,-2.7 -13.81,-4.8 -8.8,-4.23 -16.71,-10.52 -22.85,-18.2l-2.37 -2.96 -4.52 -1.61c-9.93,-3.56 -20.19,-6.1 -29.9,-10.37 -9.54,-4.57 -19.62,-8.05 -28.64,-13.78l-13.97 -7.79c-4.72,-2.51 -8.88,-5.91 -13.38,-8.8l-13.22 -9.06 -12.4 -10.23c-4.08,-3.48 -8.39,-6.7 -12.28,-10.37l-11.5 -11.31c-4.23,-3.86 -8.12,-8.06 -11.91,-12.33 -3.33,-3.78 -6.62,-7.6 -9.96,-11.42 -7.41,-7.87 -13.44,-16.82 -19.89,-25.5 -6.74,-8.5 -11.95,-18.02 -17.68,-27.19 -6.03,-9.03 -10.34,-18.99 -15.39,-28.62 -5.29,-9.51 -9.02,-19.74 -13.14,-29.81 -1.91,-5.09 -4.35,-10 -5.85,-15.24l-4.79 -15.63c-1.54,-5.23 -3.26,-10.45 -4.72,-15.69l-3.48 -16.03 -3.52 -16.06c-0.64,-3.52 -1.08,-7.08 -1.5,-10.67 -0.22,-1.88 -0.45,-3.75 -0.67,-5.63 -1.24,-10.89 -3.3,-21.8 -3.3,-32.81 -0.18,-11.01 -1.38,-22.06 -0.82,-33.1l1.38 -33.26 0 0 0 -0.19c0,-15.17 1.13,-30.11 3.23,-44.72 -2.1,-1.05 -4.19,-1.99 -6.25,-3.07l-15.88 -8.55 4.46 -16.29 7.22 -26.37c3.08,-8.58 6.22,-17.15 9.48,-25.65l11.69 -24.65c4.45,-7.9 9.13,-15.72 13.78,-23.52l15.77 -22.14 17.68 -20.6c6.44,-6.37 12.7,-12.85 19.33,-18.95 6.96,-5.73 13.78,-11.61 20.85,-17.11 7.42,-5.1 14.73,-10.31 22.25,-15.1 7.79,-4.42 15.43,-9.02 23.44,-12.96 8.16,-3.59 16.15,-7.53 24.39,-10.79 8.39,-2.85 16.59,-6.18 25.06,-8.54 8.61,-2.03 17.08,-4.38 25.69,-6.03 8.7,-1.31 17.23,-2.89 25.96,-3.67 8.8,-0.41 17.49,-1.01 26.06,-1.2 8.58,0.53 17.08,0.87 25.66,1.54 -143.26,4 -262.03,105.58 -292.29,240.64 28.69,15.28 61.42,24 96.18,24 104.72,0 191.02,-78.53 203.38,-179.92 -0.11,-3.9 0.12,-7.82 0.45,-11.76 0.31,-4.46 0.71,-8.88 1.13,-13.29 0,38.91 10.86,75.32 29.66,106.3 1.73,2.8 3.48,5.57 5.36,8.31 3.66,5.43 7.6,10.71 11.8,15.77 37.56,45.55 94.46,74.6 158.13,74.6 34.8,0 67.53,-8.73 96.22,-24 -2.85,-12.66 -6.48,-25.02 -10.79,-37.04 -2.92,-8.02 -6.1,-15.88 -9.66,-23.56 -1.72,-3.85 -3.6,-7.64 -5.51,-11.42 -49.7,-97.72 -149.96,-165.36 -266.33,-168.62 8.55,-0.67 17.08,-1.01 25.62,-1.54 8.58,0.19 17.31,0.79 26.11,1.2 8.7,0.79 17.23,2.37 25.96,3.67 8.58,1.65 17.04,4 25.65,6.03 8.5,2.36 16.67,5.69 25.1,8.54 8.24,3.26 16.22,7.2 24.39,10.79 7.97,3.94 15.62,8.55 23.41,12.96 7.56,4.79 14.86,10 22.24,15.1 7.08,5.5 13.9,11.38 20.86,17.11 6.62,6.1 12.89,12.58 19.32,18.95l17.68 20.6 15.78 22.14c4.64,7.79 9.32,15.62 13.78,23.52l11.69 24.65c3.25,8.5 6.43,17.07 9.47,25.65l7.23 26.37 4.46 16.29 -15.85 8.55zm-311.87 -260.76c2.36,0 4.68,0.15 7,0.19l-14.05 0c2.37,-0.04 4.68,-0.19 7.05,-0.19zm-532.15 -190.59c-6.96,0 -12.62,-5.66 -12.62,-12.62 0,-6.98 5.66,-12.62 12.62,-12.62 6.96,0 12.62,5.65 12.62,12.62 0,6.96 -5.66,12.62 -12.62,12.62zm81.05 -81.06c-6.96,0 -12.62,-5.65 -12.62,-12.61 0,-6.98 5.66,-12.62 12.62,-12.62 6.96,0 12.62,5.65 12.62,12.62 0,6.96 -5.66,12.61 -12.62,12.61zm902.41 -25.24c6.98,0 12.62,5.65 12.62,12.62 0,6.96 -5.65,12.61 -12.62,12.61 -6.96,0 -12.61,-5.65 -12.61,-12.61 0,-6.98 5.65,-12.62 12.61,-12.62zm81.09 81.05c6.96,0 12.62,5.65 12.62,12.62 0,6.96 -5.66,12.62 -12.62,12.62 -7.01,0 -12.62,-5.66 -12.62,-12.62 0,-6.98 5.62,-12.62 12.62,-12.62zm-94.61 121.16l85.58 -81.31c2.85,0.98 5.84,1.61 9.02,1.61 15.91,0 28.8,-12.92 28.8,-28.84 0,-15.93 -12.89,-28.8 -28.8,-28.8 -15.91,0 -28.84,12.88 -28.84,28.8 0,3.19 0.64,6.18 1.57,9.02l-84.2 88.69c-17.86,-10.61 -36.97,-19.29 -57.03,-25.77l84.46 -124.5c0.97,0.12 1.94,0.3 2.95,0.3 15.93,0 28.85,-12.88 28.85,-28.79 0,-15.93 -12.92,-28.85 -28.85,-28.85 -15.91,0 -28.79,12.92 -28.79,28.85 0,5.35 1.53,10.3 4.08,14.6l-80.83 133.16c-22.21,-5.58 -45.4,-8.58 -69.33,-8.58 -25.4,0 -49.96,3.44 -73.4,9.69 -13.87,-99.66 -99.4,-176.4 -202.93,-176.4 -103.48,0 -189.02,76.74 -202.92,176.4 -23.41,-6.25 -48.02,-9.69 -73.42,-9.69 -23.89,0 -47.12,2.99 -69.29,8.58l-80.87 -133.16c2.55,-4.3 4.13,-9.25 4.13,-14.6 0,-15.93 -12.93,-28.85 -28.85,-28.85 -15.91,0 -28.8,12.92 -28.8,28.85 0,15.91 12.89,28.79 28.8,28.79 1.01,0 1.99,-0.18 2.99,-0.3l84.42 124.5c-20.08,6.48 -39.18,15.16 -57,25.77l-84.23 -88.69c0.93,-2.85 1.57,-5.84 1.57,-9.02 0,-15.93 -12.89,-28.8 -28.8,-28.8 -15.91,0 -28.84,12.88 -28.84,28.8 0,15.91 12.92,28.84 28.84,28.84 3.14,0 6.15,-0.64 8.99,-1.61l85.58 81.31c-73.9,51.2 -122.33,136.55 -122.33,233.26 0,139.41 100.64,255.03 233.14,278.92 1.66,0.3 3.26,0.74 4.95,1.01 -1.5,0.56 -2.85,1.38 -4.31,2.02 -43.07,18.28 -73.48,60.57 -73.48,110.31 0,66.44 53.86,120.3 120.3,120.3 19.7,0 38.2,-4.87 54.61,-13.3 4.6,5.63 9.35,11.17 14.6,16.22l11.95 12.36c4.04,4.04 8.58,7.6 12.85,11.42l13.03 11.31 14.01 10.12c4.71,3.26 9.14,7.01 14.15,9.88l14.95 8.8c9.74,6.25 20.75,10.3 31.16,15.36 9.29,4.12 19.14,7 28.8,10.3 8.09,9.36 17.97,17.23 29.17,22.7 6.18,3.03 12.77,5.39 19.51,6.96 3.41,0.74 6.82,1.35 10.27,1.76 3.59,0.37 6.51,0.56 10.71,0.59l4.45 -0.11 5.51 -0.49c3.48,-0.46 6.86,-1.02 10.27,-1.8 6.74,-1.6 13.29,-3.97 19.51,-7.04 11.16,-5.47 21.01,-13.37 29.1,-22.77 9.66,-3.26 19.47,-6.18 28.76,-10.3 10.45,-5.05 21.42,-9.1 31.2,-15.32l14.94 -8.83c5.02,-2.85 9.44,-6.59 14.19,-9.85l14.01 -10.12 13.07 -11.26c4.27,-3.82 8.76,-7.38 12.88,-11.39l11.99 -12.36c5.17,-5.02 9.89,-10.49 14.49,-16.03 16.34,8.36 34.76,13.19 54.39,13.19 66.44,0 120.3,-53.86 120.3,-120.3 0,-49.71 -30.37,-91.99 -73.45,-110.31 -1.42,-0.59 -2.77,-1.42 -4.27,-1.99 1.69,-0.25 3.26,-0.71 4.9,-1.01 132.62,-23.78 233.38,-139.47 233.38,-278.96 0,-96.71 -48.43,-182.06 -122.33,-233.26z"/>
  <path class="fil2" d="M783.71 1129.74c3.41,0 6.3,1.94 7.91,4.68 0.82,-1.39 1.42,-2.96 1.42,-4.68 0,-5.17 -4.16,-9.33 -9.33,-9.33 -5.16,0 -9.32,4.16 -9.32,9.33 0,1.72 0.59,3.29 1.42,4.68 1.61,-2.74 4.49,-4.68 7.9,-4.68z"/>
  <path class="fil2" d="M839.9 1129.74c3.41,0 6.3,1.94 7.91,4.68 0.82,-1.39 1.42,-2.96 1.42,-4.68 0,-5.17 -4.16,-9.33 -9.33,-9.33 -5.17,0 -9.32,4.16 -9.32,9.33 0,1.72 0.59,3.29 1.42,4.68 1.6,-2.74 4.49,-4.68 7.9,-4.68z"/>
  <path class="fil0" d="M774.14 1213.53c6,0.74 12.21,1.11 18.51,1.6 6.33,0.31 12.36,0.53 19.06,0.53 25.54,0.18 51.06,-3.38 70.68,-7.35 2.47,-0.45 4.83,-0.93 7.12,-1.42 -3.48,-20.37 -21.05,-35.95 -42.4,-35.95 -14.61,0 -27.49,7.26 -35.28,18.35 -7.82,-11.08 -20.67,-18.35 -35.28,-18.35 -21.38,0 -39,15.57 -42.44,35.95 2.21,0.49 4.53,0.93 6.93,1.42 9.81,1.91 21.08,3.9 33.1,5.21z"/>
  <path class="fil2" d="M889.5 1206.89c-2.28,0.49 -4.65,0.98 -7.11,1.42 -19.63,3.97 -45.13,7.53 -70.68,7.34 -6.71,0 -12.74,-0.22 -19.07,-0.52 -6.3,-0.49 -12.51,-0.86 -18.51,-1.61 -12.02,-1.31 -23.29,-3.29 -33.1,-5.2 -2.4,-0.49 -4.72,-0.93 -6.93,-1.42 -6.82,-1.42 -12.66,-2.85 -17.11,-3.9 -5.96,-1.47 -9.48,-2.21 -9.48,-2.21 0,0 2.29,2.77 6.93,6.96 2.33,2.1 5.2,4.57 8.73,7.16 2.96,2.17 6.44,4.53 10.27,6.82 0.67,0.41 1.27,0.82 1.99,1.23 9.32,5.36 20.94,10.61 34.08,14.16 6.55,1.84 13.48,3.22 20.56,4.15 7.04,1.02 14.68,1.35 21.65,1.47 14.53,-0.04 29.1,-2.03 42.21,-5.69 13.1,-3.56 24.75,-8.77 34.08,-14.12 0.79,-0.46 1.45,-0.93 2.21,-1.39 3.71,-2.24 7.11,-4.57 10.03,-6.67 3.48,-2.58 6.41,-5.05 8.73,-7.16 4.65,-4.19 6.93,-6.92 6.93,-6.92 0,0 -3.56,0.74 -9.48,2.21 -4.42,1.05 -10.18,2.47 -16.92,3.9z"/>
  <path class="fil0" d="M652.67 1145.4c0,-66.44 -53.85,-120.26 -120.3,-120.26 -8.88,0 -17.53,1.08 -25.84,2.95 0.41,3.56 0.86,7.16 1.5,10.68l3.52 16.06 3.48 16.03c1.45,5.24 3.19,10.45 4.71,15.66l4.8 15.65c1.47,5.24 3.93,10.15 5.84,15.25 4.12,10.08 7.84,20.3 13.15,29.81 5.05,9.59 9.35,19.59 15.38,28.61 5.73,9.18 10.95,18.7 17.69,27.2 6.43,8.64 12.46,17.63 19.89,25.5 3.33,3.82 6.59,7.64 9.96,11.42 28.09,-21.99 46.21,-56.11 46.21,-94.57z"/>
  <path class="fil0" d="M970.67 1145.4c0,38.51 18.21,72.66 46.33,94.69 3.45,-3.86 6.78,-7.79 10.19,-11.66 7.41,-7.86 13.48,-16.82 19.96,-25.5 6.74,-8.46 11.99,-17.97 17.72,-27.16 6.03,-9.02 10.37,-18.98 15.39,-28.61 5.32,-9.51 9.06,-19.74 13.18,-29.81 1.91,-5.1 4.35,-10 5.85,-15.25l4.76 -15.65 4.71 -15.7 3.48 -16.02 3.48 -16.07c0.64,-3.44 1.05,-6.96 1.47,-10.49 -8.46,-1.91 -17.19,-3.03 -26.21,-3.03 -66.45,0 -120.31,53.82 -120.31,120.26z"/>
  <path class="fil2" d="M954.03 932.15c-43.37,0 -78.5,35.13 -78.5,78.5 0,8.09 1.23,15.93 3.51,23.26 9.93,-31.99 39.74,-55.24 74.99,-55.24 35.25,0 65.06,23.25 74.99,55.24 2.28,-7.34 3.51,-15.17 3.51,-23.26 0,-43.37 -35.13,-78.5 -78.5,-78.5z"/>
  <g id="_2590969260528">
   <path class="fil3" d="M2241.97 819.45c0,151.92 53.97,281.32 161.88,388.19 106.87,107.92 236.28,161.88 388.19,161.88 178.14,0 322.21,-70.2 432.23,-210.59 18.86,-24.11 26.71,-50.82 23.57,-80.16 -4.19,-30.39 -18.34,-55.03 -42.44,-73.88 -24.09,-18.86 -50.82,-26.19 -80.16,-22 -30.39,3.14 -54.99,16.76 -73.86,40.85 -66,83.84 -152.46,125.76 -259.35,125.76 -91.15,0 -168.68,-32.49 -232.59,-97.46 -64.97,-63.91 -97.45,-141.45 -97.45,-232.59 0,-91.17 32.48,-168.7 97.45,-232.61 63.91,-64.97 141.45,-97.46 232.59,-97.46 106.89,0 193.34,41.92 259.35,125.75 18.87,24.1 43.48,37.72 73.86,40.86 29.33,4.19 56.07,-3.14 80.16,-22 24.1,-18.87 38.24,-43.5 42.44,-73.88 3.14,-29.33 -4.71,-56.05 -23.57,-80.16 -110.02,-140.4 -254.09,-210.59 -432.23,-210.59 -151.92,0 -281.32,53.95 -388.19,161.88 -107.92,106.87 -161.88,236.28 -161.88,388.21zm1301.35 330.05c-30.4,0 -56.07,10.47 -77.02,31.43 -22,22 -33,48.19 -33,78.57 0,30.39 11,56.06 33,77.01 20.96,22 46.63,33.01 77.02,33.01l37.72 0c67.07,0 129.4,-17.28 187.01,-51.86 56.59,-33.53 100.59,-79.64 132.03,-138.32l400.79 -748.11c14.66,-26.19 17.28,-53.97 7.85,-83.31 -8.39,-29.33 -26.19,-51.33 -53.43,-66.02 -26.2,-14.66 -53.97,-17.27 -83.3,-7.85 -29.34,8.39 -51.34,26.19 -66,53.44l-282.91 529.66 -309.64 -532.82c-15.7,-26.19 -38.23,-43.48 -67.57,-51.86 -29.34,-7.34 -57.12,-3.65 -83.31,11.01 -26.19,15.72 -43.48,38.24 -51.86,67.59 -7.34,29.33 -3.14,57.1 12.58,83.3l375.62 649.11c-27.23,44 -66.52,66.02 -117.87,66.02l-37.72 0zm2131.21 -770.13c0,-30.39 -10.47,-56.07 -31.43,-77.02 -22.02,-22 -48.21,-33 -78.6,-33 -30.39,0 -56.59,11 -78.59,33 -20.96,20.96 -31.43,46.64 -31.43,77.02l0 770.13 -282.89 0 0 -770.13c0,-30.39 -10.49,-56.07 -31.45,-77.02 -22,-22 -48.19,-33 -78.59,-33 -30.39,0 -56.06,11 -77.01,33 -22,20.96 -33.01,46.64 -33.01,77.02l0 770.13 -282.89 0 0 -770.13c0,-30.39 -10.48,-56.07 -31.44,-77.02 -22.01,-22 -48.2,-33 -78.6,-33 -30.39,0 -56.04,11 -76.99,33 -22.02,20.96 -33.01,46.64 -33.01,77.02l0 880.13c0,30.39 10.99,56.06 33.01,77.01 20.96,22 46.61,33.01 76.99,33.01l1005.89 0c30.39,0 56.58,-11.01 78.6,-33.01 20.96,-20.96 31.43,-46.63 31.43,-77.01l0 -880.13zm220.04 878.57c0,51.33 24.1,85.91 72.29,103.74 48.21,17.79 88.54,7.33 121.03,-31.45l561.09 -655.4 0 583.11c0,30.39 10.47,56.59 31.43,78.57 22.02,20.97 48.21,31.44 78.6,31.44 30.37,0 56.59,-10.47 78.59,-31.44 20.96,-21.99 31.43,-48.19 31.43,-78.57l0 -880.15c0,-51.34 -24.1,-85.39 -72.29,-102.15 -11.53,-5.23 -24.11,-7.87 -37.72,-7.87 -33.54,0 -61.29,13.1 -83.31,39.3l-561.09 653.82 0 -583.11c0,-30.39 -10.47,-56.06 -31.43,-77.01 -22.02,-22 -48.21,-33.01 -78.6,-33.01 -30.39,0 -56.59,11.01 -78.57,33.01 -20.97,20.96 -31.44,46.63 -31.44,77.01l0 880.15z"/>
   <path class="fil3" d="M7024.8 817.86c0,151.93 53.97,281.32 161.88,388.19 106.87,107.93 236.28,161.9 388.19,161.9 178.14,0 322.21,-70.21 432.23,-210.61 18.86,-24.11 26.71,-50.82 23.57,-80.16 -4.19,-30.39 -18.34,-55.02 -42.44,-73.88 -24.09,-18.86 -50.82,-26.19 -80.15,-22 -30.4,3.14 -55.01,16.76 -73.87,40.86 -66,83.83 -152.46,125.75 -259.35,125.75 -91.15,0 -168.68,-32.49 -232.59,-97.45 -64.97,-63.91 -97.45,-141.46 -97.45,-232.6 0,-91.17 32.48,-168.7 97.45,-232.61 63.91,-64.97 141.45,-97.45 232.59,-97.45 106.89,0 193.34,41.92 259.35,125.75 18.87,24.09 43.48,37.72 73.87,40.85 29.32,4.19 56.06,-3.13 80.15,-22 24.1,-18.86 38.24,-43.49 42.44,-73.88 3.14,-29.32 -4.71,-56.04 -23.57,-80.16 -110.02,-140.39 -254.09,-210.59 -432.23,-210.59 -151.92,0 -281.32,53.97 -388.19,161.88 -107.92,106.87 -161.88,236.28 -161.88,388.21zm2016.48 550.09c30.36,0 56.58,-10.47 78.57,-31.44 20.96,-22.01 31.43,-48.2 31.43,-78.6 0,-30.39 -10.47,-56.58 -31.43,-78.57 -22,-20.96 -48.21,-31.43 -78.57,-31.43l-644.4 0 0 -220.04 581.52 0c30.39,0 56.06,-10.47 77.01,-31.44 22,-21.99 33.01,-48.2 33.01,-78.57 0,-30.39 -11.01,-56.58 -33.01,-78.6 -20.96,-20.96 -46.63,-31.43 -77.01,-31.43l-581.52 0 0 -220.04 644.4 0c30.36,0 56.58,-10.48 78.57,-31.44 20.96,-21.99 31.43,-48.19 31.43,-78.57 0,-30.39 -10.47,-56.58 -31.43,-78.6 -22,-20.94 -48.21,-31.43 -78.57,-31.43l-754.43 0c-30.39,0 -56.58,10.49 -78.57,31.43 -20.96,22.02 -31.43,48.21 -31.43,78.6l0 880.13c0,30.4 10.47,56.59 31.43,78.6 22,20.97 48.19,31.44 78.57,31.44l754.43 0zm550.08 -880.15l0 770.12c0,30.4 11,56.07 33.01,77.02 20.96,22 46.63,33.01 77,33.01 30.39,0 56.58,-11.01 78.6,-33.01 20.96,-20.96 31.43,-46.63 31.43,-77.02l0 -770.12 267.2 0c30.36,0 56.58,-10.48 78.57,-31.44 20.96,-21.99 31.43,-48.19 31.43,-78.57 0,-30.39 -10.47,-56.58 -31.43,-78.6 -22,-20.94 -48.21,-31.43 -78.57,-31.43l-754.43 0c-30.39,0 -56.58,10.49 -78.57,31.43 -20.96,22.02 -31.44,48.21 -31.44,78.6 0,30.39 10.48,56.59 31.44,78.57 22,20.96 48.19,31.44 78.57,31.44l267.19 0z"/>
  </g>
 </g>
</svg>
