<svg xmlns="http://www.w3.org/2000/svg" width="23.08" height="17.462" viewBox="0 0 23.08 17.462">
  <g id="Сгруппировать_3122" data-name="Сгруппировать 3122" transform="translate(-548.986 -6643.538)">
    <path id="Контур_1137" data-name="Контур 1137" d="M268.26,405.959a.12.12,0,0,1,.048.009.122.122,0,0,1,.065.064.118.118,0,0,1,0,.094.12.12,0,0,1-.026.038.125.125,0,0,1-.039.026.117.117,0,0,1-.048.01.125.125,0,0,1-.088-.036.123.123,0,0,1-.026-.038.12.12,0,0,1,0-.094.124.124,0,0,1,.026-.038.117.117,0,0,1,.039-.026A.124.124,0,0,1,268.26,405.959Zm0,.215a.089.089,0,0,0,.036-.008.091.091,0,0,0,.03-.02.093.093,0,0,0,.027-.067.092.092,0,0,0-.027-.066.091.091,0,0,0-.066-.027.1.1,0,0,0-.037.007.092.092,0,0,0-.03.02.092.092,0,0,0-.027.066.093.093,0,0,0,.027.067.091.091,0,0,0,.03.02A.093.093,0,0,0,268.26,406.173Zm.007-.151a.052.052,0,0,1,.033.01.032.032,0,0,1,.012.026.03.03,0,0,1-.009.023.042.042,0,0,1-.026.011l.037.042h-.029l-.034-.042h-.011v.042h-.024v-.112Zm-.028.021v.03h.028a.026.026,0,0,0,.015,0,.014.014,0,0,0,0-.022.027.027,0,0,0-.015,0Zm-12.5.091v-1.193a.707.707,0,0,0-.747-.755.737.737,0,0,0-.668.338.7.7,0,0,0-.628-.338.628.628,0,0,0-.556.282v-.235h-.413v1.9h.417v-1.053a.444.444,0,0,1,.465-.5c.274,0,.414.179.414.5v1.057h.417v-1.053a.448.448,0,0,1,.465-.5c.282,0,.417.179.417.5v1.057Zm2.329-.95v-.95h-.413v.231a.721.721,0,0,0-.6-.278,1,1,0,0,0,0,2,.721.721,0,0,0,.6-.278v.231h.413Zm-1.538,0a.575.575,0,1,1,.576.608A.57.57,0,0,1,256.528,405.184Zm10.384-1a1.071,1.071,0,0,1,.408.077.994.994,0,0,1,.324.21.965.965,0,0,1,.214.316,1.057,1.057,0,0,1,0,.794.963.963,0,0,1-.214.316.991.991,0,0,1-.324.21,1.125,1.125,0,0,1-.816,0,.963.963,0,0,1-.537-.527,1.058,1.058,0,0,1,0-.794.963.963,0,0,1,.537-.527A1.071,1.071,0,0,1,266.912,404.184Zm0,.391a.619.619,0,0,0-.236.045.562.562,0,0,0-.189.125.584.584,0,0,0-.125.193.692.692,0,0,0,0,.494.584.584,0,0,0,.125.192.559.559,0,0,0,.189.125.648.648,0,0,0,.472,0,.57.57,0,0,0,.189-.125.577.577,0,0,0,.126-.192.692.692,0,0,0,0-.494.564.564,0,0,0-.315-.318A.62.62,0,0,0,266.912,404.575Zm-6.6.609a.911.911,0,0,0-.9-1,1,1,0,0,0,.028,2,1.156,1.156,0,0,0,.779-.266l-.2-.306a.9.9,0,0,1-.552.2.528.528,0,0,1-.568-.465h1.411C260.312,405.292,260.316,405.24,260.316,405.184Zm-1.415-.167a.489.489,0,0,1,.5-.461.472.472,0,0,1,.481.461Zm3.335-.632a1.421,1.421,0,0,0-.775-.2c-.481,0-.791.231-.791.608,0,.31.231.5.656.56l.195.028c.226.032.334.092.334.2,0,.147-.151.231-.433.231a1.013,1.013,0,0,1-.632-.2l-.195.322a1.372,1.372,0,0,0,.823.246c.549,0,.866-.258.866-.62,0-.334-.25-.509-.664-.568l-.195-.028c-.179-.024-.322-.06-.322-.187s.135-.223.362-.223a1.226,1.226,0,0,1,.592.163Zm1.808-.151h-.676v-.576h-.417v.576h-.386v.378h.386v.867c0,.441.171.7.66.7a.97.97,0,0,0,.517-.147l-.119-.354a.763.763,0,0,1-.366.107c-.207,0-.274-.127-.274-.318v-.859h.676Zm1.431-.048a.56.56,0,0,0-.5.278v-.231h-.41v1.9h.413v-1.065c0-.314.135-.489.406-.489a.675.675,0,0,1,.258.048l.127-.39a.888.888,0,0,0-.294-.052Z" transform="translate(300.491 6254.8)" fill="#fff"/>
    <g id="Сгруппировать_497" data-name="Сгруппировать 497" transform="translate(548.986 6643.538)">
      <rect id="Прямоугольник_108" data-name="Прямоугольник 108" width="6.241" height="11.215" transform="translate(8.42 1.525)" fill="#7472bc"/>
      <path id="Контур_1138" data-name="Контур 1138" d="M242.812,335.485a7.121,7.121,0,0,1,2.724-5.608,7.133,7.133,0,1,0,0,11.216A7.121,7.121,0,0,1,242.812,335.485Z" transform="translate(-233.996 -328.352)" fill="#c90120"/>
      <path id="Контур_1139" data-name="Контур 1139" d="M303.781,335.485a7.133,7.133,0,0,1-11.54,5.608,7.134,7.134,0,0,0,0-11.216,7.132,7.132,0,0,1,11.54,5.608Z" transform="translate(-280.701 -328.352)" fill="#5a9fdc"/>
    </g>
  </g>
</svg>
