<svg xmlns="http://www.w3.org/2000/svg" width="23.093" height="17.894" viewBox="0 0 23.093 17.894">
  <g id="Сгруппировать_3121" data-name="Сгруппировать 3121" transform="translate(-507.53 -6643)">
    <path id="_Compound_Path_" data-name=" Compound Path " d="M52.921,406.621v-1.189a.691.691,0,0,0-.733-.753.78.78,0,0,0-.674.337.693.693,0,0,0-.634-.337.673.673,0,0,0-.575.277v-.238h-.376v1.9h.376v-1.09a.444.444,0,0,1,.388-.494.437.437,0,0,1,.088,0c.277,0,.436.178.436.5v1.09h.376v-1.09a.444.444,0,0,1,.388-.494.437.437,0,0,1,.088,0c.277,0,.436.178.436.5v1.09Zm6.182-1.882h-.693v-.575h-.376v.575h-.4v.337h.4v.892c0,.436.159.693.634.693a1.107,1.107,0,0,0,.515-.139l-.119-.337a.651.651,0,0,1-.357.1.277.277,0,0,1-.3-.254.272.272,0,0,1,0-.063v-.911H59.1Zm3.527-.059a.594.594,0,0,0-.515.277v-.238h-.376v1.9h.376v-1.07c0-.317.159-.515.416-.515a1.169,1.169,0,0,1,.258.04l.119-.357A1.324,1.324,0,0,0,62.629,404.679Zm-5.33.2a1.359,1.359,0,0,0-.773-.2c-.476,0-.773.218-.773.594,0,.317.218.5.634.555l.2.02c.218.04.357.119.357.218,0,.139-.159.238-.456.238a1.043,1.043,0,0,1-.634-.2l-.2.3a1.436,1.436,0,0,0,.812.238c.555,0,.852-.258.852-.614s-.238-.5-.654-.555l-.2-.02c-.178-.02-.337-.079-.337-.2s.159-.238.376-.238a1.431,1.431,0,0,1,.594.159Zm5.766.793a.935.935,0,0,0,.991.991.991.991,0,0,0,.674-.218l-.2-.3a.793.793,0,0,1-.5.178.636.636,0,0,1,0-1.268.792.792,0,0,1,.5.178l.2-.3a.99.99,0,0,0-.674-.218.888.888,0,0,0-.991.951Zm-2.675-.991a.911.911,0,0,0-.931.991.931.931,0,0,0,.971.991,1.213,1.213,0,0,0,.773-.258l-.2-.277a.947.947,0,0,1-.555.2.557.557,0,0,1-.575-.5h1.407v-.159A.893.893,0,0,0,60.39,404.679Zm0,.357a.473.473,0,0,1,.495.451c0,.008,0,.016,0,.024h-1.03A.509.509,0,0,1,60.39,405.036Zm-5.132.634v-.951h-.376v.238a.729.729,0,0,0-.614-.277.991.991,0,0,0,0,1.981.729.729,0,0,0,.614-.277v.238h.376Zm-1.545,0a.594.594,0,1,1,.594.634.583.583,0,0,1-.6-.568A.563.563,0,0,1,53.713,405.67Zm14.642-.991a.594.594,0,0,0-.515.277v-.238h-.376v1.9h.376v-1.07c0-.317.159-.515.416-.515a1.169,1.169,0,0,1,.258.04l.119-.357A1.324,1.324,0,0,0,68.355,404.679Zm-1.466.991v-.951h-.376v.238a.729.729,0,0,0-.614-.277.991.991,0,1,0,0,1.981.729.729,0,0,0,.614-.277v.238h.376Zm-1.526,0a.594.594,0,1,1,.594.634A.573.573,0,0,1,65.363,405.67Zm5.369,0v-1.7h-.376v.991a.729.729,0,0,0-.614-.277.991.991,0,0,0,0,1.981.729.729,0,0,0,.614-.277v.238h.376Zm-1.545,0a.594.594,0,1,1,.594.634.583.583,0,0,1-.6-.568A.563.563,0,0,1,69.187,405.67Z" transform="translate(458.821 6254.231)" fill="#fff"/>
    <g id="_Group_" data-name=" Group " transform="translate(507.53 6643)">
      <rect id="Прямоугольник_107" data-name="Прямоугольник 107" width="6.875" height="11.214" transform="translate(8.114 1.526)" fill="#ff5f00"/>
      <path id="_Path_" data-name=" Path " d="M52.8,334.4a7.152,7.152,0,0,1,2.714-5.607,7.133,7.133,0,1,0,0,11.214A7.152,7.152,0,0,1,52.8,334.4Z" transform="translate(-43.976 -327.264)" fill="#eb001b"/>
      <path id="Контур_1136" data-name="Контур 1136" d="M113.86,334.429a7.133,7.133,0,0,1-11.531,5.607,7.148,7.148,0,0,0,0-11.214,7.133,7.133,0,0,1,11.531,5.607Z" transform="translate(-90.768 -327.296)" fill="#f79e1b"/>
    </g>
  </g>
</svg>
